<svg width="29" height="29" viewBox="0 0 29 29" fill="none" xmlns="http://www.w3.org/2000/svg">
<rect width="29" height="29" fill="#E5E5E5"/>
<g clip-path="url(#clip0)">
<rect width="1440" height="2568" transform="translate(-531 -496)" fill="white"/>
<rect x="-532" y="-26" width="720" height="74" fill="white"/>
<circle cx="14.5" cy="14.5" r="14.5" fill="#16B271"/>
<g clip-path="url(#clip1)">
<path d="M18.755 21C17.8344 21 16.9271 20.7655 16.1324 20.3281C14.5165 19.4344 13.5099 17.7674 13.5099 15.98C13.5099 15.4539 13.3708 14.9342 13.1059 14.4778C12.8212 13.9771 12.3907 13.5588 11.8742 13.2735C11.6622 13.1531 11.4305 13.058 11.1987 12.9946C10.8609 12.8996 10.6026 12.6334 10.5232 12.3101C10.4569 12.0439 10.4238 11.765 10.4238 11.4925C10.4238 9.57193 12.0596 8.00635 14.0662 8.00635C15.9205 8.00635 17.4569 9.34374 17.6821 11.0678C18.0331 10.9981 18.3973 10.96 18.7616 10.96C21.6556 10.96 24.0066 13.2102 24.0066 15.98C24.0066 18.7499 21.649 21 18.755 21ZM12.4106 11.3974C12.5695 11.4671 12.7218 11.5432 12.8675 11.6256C13.6954 12.0883 14.3841 12.7538 14.841 13.5588C15.2649 14.294 15.4901 15.1307 15.4901 15.9737C15.4901 17.0829 16.1126 18.1224 17.1192 18.6802C17.6093 18.9527 18.1788 19.0985 18.7483 19.0985C20.543 19.0985 22.0066 17.6977 22.0066 15.98C22.0066 14.2623 20.543 12.8615 18.7483 12.8615C18.1722 12.8615 17.6093 13.0073 17.1192 13.2799C17.0795 13.3052 17.0397 13.3242 17 13.3496C16.6291 13.5778 16.1457 13.5461 15.8079 13.2672C15.4768 12.9883 15.3775 12.5319 15.5629 12.1516C15.5761 12.1263 15.5894 12.1009 15.6026 12.0692C15.6755 11.8854 15.7152 11.6953 15.7152 11.4988C15.7152 10.6241 14.9735 9.9142 14.0596 9.9142C13.1788 9.90152 12.4569 10.567 12.4106 11.3974Z" fill="white"/>
<path d="M18.755 20.9999H10.245C7.35099 20.9999 5 18.7435 5 15.9736C5 13.2037 7.35099 10.9536 10.245 10.9536C10.7682 10.9536 11.2848 11.0297 11.7815 11.1691C12.1589 11.2769 12.5232 11.429 12.8742 11.6255C13.702 12.0882 14.3907 12.7537 14.8477 13.5587C15.2715 14.2939 15.4967 15.1306 15.4967 15.9736C15.4967 17.0828 16.1192 18.1223 17.1258 18.6801C17.6159 18.9526 18.1854 19.0984 18.755 19.0984C19.3046 19.0984 19.7483 19.5231 19.7483 20.0492C19.7483 20.5753 19.3046 20.9999 18.755 20.9999ZM10.245 12.8551C8.45033 12.8551 6.98675 14.2559 6.98675 15.9736C6.98675 17.6913 8.45033 19.0921 10.245 19.0921H14.6424C13.9205 18.2174 13.5033 17.1209 13.5033 15.9736C13.5033 15.4475 13.3642 14.9278 13.0993 14.4714C12.8146 13.9707 12.3841 13.5523 11.8675 13.2671C11.6556 13.1467 11.4238 13.0516 11.1921 12.9882C10.894 12.8995 10.5695 12.8551 10.245 12.8551Z" fill="white"/>
</g>
</g>
<defs>
<clipPath id="clip0">
<rect width="1440" height="2568" fill="white" transform="translate(-531 -496)"/>
</clipPath>
<clipPath id="clip1">
<rect width="19" height="13" fill="white" transform="translate(5 8)"/>
</clipPath>
</defs>
</svg>
