<svg width="30" height="30" viewBox="0 0 30 30" fill="none" xmlns="http://www.w3.org/2000/svg">
<rect width="30" height="30" fill="#E5E5E5"/>
<g clip-path="url(#clip0)">
<rect width="1440" height="2568" transform="translate(-278 -496)" fill="white"/>
<rect x="-279" y="-26" width="720" height="74" fill="white"/>
<circle cx="15" cy="15" r="15" fill="#592666"/>
<g clip-path="url(#clip1)">
<path d="M19.0897 20.5156C19.0897 20.5156 19.0897 20.5284 19.1019 20.5284L19.1634 20.5923C19.1265 20.5668 19.1142 20.5412 19.0897 20.5156ZM19.3847 20.8227L19.4954 20.9379C19.5077 20.9379 19.52 20.9507 19.5323 20.9507C19.4708 20.9123 19.4216 20.8739 19.3847 20.8227ZM22.0282 13.7195C21.0077 13.7195 20.0856 14.1162 19.3847 14.7818C19.3724 14.7818 19.3724 14.7946 19.3601 14.7946L19.3478 14.8074C19.3478 14.8074 19.3356 14.8074 19.3356 14.8202C19.2618 14.897 19.188 14.9737 19.1142 15.0505C19.0159 15.1657 18.9298 15.2809 18.8438 15.3961L19.1511 15.0761C19.2249 14.9993 19.2987 14.9226 19.3724 14.8458C20.0733 14.1802 21.0077 13.7579 22.0282 13.7579C22.3601 13.7579 22.6798 13.7963 22.9995 13.8859C23.0118 13.8859 23.0364 13.8987 23.0487 13.8987C24.0446 14.1802 24.8929 14.8586 25.4093 15.7673C25.4216 15.7801 25.4216 15.7929 25.4339 15.8057C25.7659 16.4072 25.9503 17.0983 25.9503 17.8278C25.9503 19.7092 24.7208 21.2963 23.0487 21.7698C23.0364 21.7698 23.0118 21.7826 22.9995 21.7826C22.6921 21.8594 22.3724 21.9106 22.0282 21.9106C21.3151 21.9106 20.6511 21.7186 20.0856 21.3731L20.061 21.3987C20.1224 21.4371 20.1839 21.4627 20.2454 21.5011H20.2577C20.7987 21.7826 21.4011 21.949 22.0405 21.949C22.3847 21.949 22.7167 21.8978 23.0364 21.821C23.0487 21.821 23.061 21.8082 23.0856 21.8082C24.7577 21.3347 25.9995 19.7348 25.9995 17.8406C25.9872 15.5625 24.2167 13.7195 22.0282 13.7195Z" fill="white"/>
<path d="M15.5003 9.02218C14.4183 9.02218 13.533 9.94369 13.533 11.07C13.533 11.1084 13.533 11.1468 13.533 11.1852C13.533 11.2108 13.533 11.2363 13.5453 11.2747C13.5453 11.2875 13.5453 11.3003 13.5453 11.3131C13.5453 11.3515 13.5576 11.3899 13.5576 11.4283C13.5576 11.4411 13.5576 11.4539 13.5699 11.4795C13.5699 11.4923 13.5699 11.5051 13.5822 11.5179C13.5945 11.5563 13.6068 11.6075 13.6068 11.6459C13.6314 11.7227 13.6437 11.7867 13.6806 11.8507C13.6929 11.8763 13.7052 11.9019 13.7175 11.9275C13.7298 11.9659 13.7544 11.9915 13.7667 12.0299C13.7789 12.0555 13.7912 12.0939 13.8158 12.1195C13.8281 12.1451 13.8404 12.1706 13.8527 12.1834C13.8527 12.1962 13.865 12.209 13.8773 12.209L14.1355 12.4778L14.1601 12.5034L14.1355 12.4778C13.7789 12.0939 13.5822 11.6075 13.5822 11.07C13.5822 9.96928 14.4429 9.06058 15.5126 9.06058C16.0167 9.06058 16.4962 9.26536 16.865 9.63652L16.8896 9.61092C16.5085 9.22696 16.0167 9.02218 15.5003 9.02218ZM15.5003 7C13.3363 7 11.5781 8.8302 11.5781 11.0828C11.5781 11.9915 11.8609 12.849 12.3773 13.5529C12.4757 13.6937 12.5863 13.8217 12.7093 13.9497L12.7216 13.9625L12.7339 13.9753L12.7462 13.9625L12.7585 13.9497L12.7339 13.9241C12.0085 13.1689 11.615 12.1579 11.615 11.0828C11.615 8.8558 13.3486 7.05119 15.488 7.05119C17.6273 7.05119 19.3609 8.8558 19.3609 11.0828C19.3609 11.8891 19.1273 12.6442 18.7339 13.2841C18.6601 13.4121 18.574 13.5273 18.4757 13.6425C18.4265 13.7065 18.365 13.7705 18.3035 13.8473C18.156 14.0137 17.9839 14.18 17.7994 14.3208C17.738 14.372 17.6765 14.4104 17.615 14.4488L17.6396 14.4744L17.615 14.4872C17.7503 14.3976 17.8732 14.2952 17.9962 14.1928C18.8568 13.4377 19.3855 12.3114 19.3855 11.0828C19.4224 8.8302 17.6642 7 15.5003 7ZM16.9019 9.63652L16.8896 9.62372L16.8773 9.61092C16.5085 9.22696 16.0167 9.02218 15.5003 9.02218C14.4183 9.02218 13.533 9.94369 13.533 11.07C13.533 11.1084 13.533 11.1468 13.533 11.1852C13.533 11.2108 13.533 11.2363 13.5453 11.2747C13.5453 11.2875 13.5453 11.3003 13.5453 11.3131C13.5453 11.3515 13.5576 11.3899 13.5576 11.4283C13.5576 11.4411 13.5576 11.4539 13.5699 11.4795C13.5699 11.4923 13.5699 11.5051 13.5822 11.5179C13.5945 11.5563 13.6068 11.6075 13.6068 11.6459C13.6314 11.7227 13.6437 11.7867 13.6806 11.8507C13.6929 11.8763 13.7052 11.9019 13.7175 11.9275C13.7298 11.9659 13.7544 11.9915 13.7667 12.0299C13.7789 12.0555 13.7912 12.0939 13.8158 12.1195C13.8281 12.1451 13.8404 12.1706 13.8527 12.1834C13.8527 12.1962 13.865 12.209 13.8773 12.209C13.8896 12.2346 13.9019 12.2474 13.9142 12.273C13.9388 12.2986 13.9511 12.3242 13.9757 12.3498C13.988 12.3626 14.0003 12.3754 14.0126 12.3882C14.0248 12.401 14.0371 12.4138 14.0494 12.4394C14.0617 12.465 14.0863 12.4778 14.0986 12.5034L14.1232 12.529L14.1355 12.5162L14.1478 12.5034L14.1232 12.4778C13.7666 12.0939 13.5699 11.6075 13.5699 11.07C13.5699 9.96928 14.4306 9.06058 15.5003 9.06058C16.0044 9.06058 16.4839 9.26536 16.8527 9.63652L16.865 9.64932L16.8773 9.66212C17.2339 10.0333 17.4306 10.5324 17.4306 11.07C17.4306 11.4411 17.3322 11.8123 17.1478 12.1195C17.1355 12.1451 17.1109 12.1706 17.0986 12.1962C17.0863 12.2218 17.0617 12.2474 17.0494 12.273C17.0371 12.2858 17.0248 12.2986 17.0248 12.3114C17.0126 12.337 16.988 12.3626 16.9757 12.3754C16.9634 12.3882 16.9634 12.3882 16.9511 12.401C16.9511 12.401 16.9511 12.401 16.9388 12.4138C16.9265 12.4266 16.9142 12.4394 16.9019 12.4522C16.8896 12.465 16.8773 12.4778 16.865 12.4906C16.8404 12.5162 16.8158 12.529 16.8035 12.5546L16.5822 12.785C16.6683 12.721 16.7544 12.657 16.8281 12.5802L16.8404 12.5674L16.9511 12.4522L16.9634 12.4394C16.9634 12.4394 16.9634 12.4394 16.9757 12.4266C17.0371 12.3626 17.0863 12.2986 17.1355 12.2218C17.3691 11.8763 17.4921 11.4667 17.4921 11.0444C17.4675 10.5324 17.2707 10.0333 16.9019 9.63652Z" fill="white"/>
<path d="M18.745 13.2714C18.6712 13.3994 18.5851 13.5146 18.4868 13.6298C18.4376 13.6938 18.3761 13.7578 18.3146 13.8346C18.1671 14.001 17.995 14.1674 17.8105 14.3081L18.6958 13.2458L18.745 13.2714Z" fill="white"/>
<path d="M16.901 9.63655L16.8887 9.62375L16.8764 9.61095C16.5076 9.22699 16.0158 9.02222 15.4994 9.02222C14.4174 9.02222 13.5322 9.94372 13.5322 11.07C13.5322 11.1084 13.5322 11.1468 13.5322 11.1852C13.5322 11.2108 13.5322 11.2364 13.5445 11.2748C13.5445 11.2876 13.5445 11.3004 13.5445 11.3132C13.5445 11.3516 13.5568 11.39 13.5568 11.4284C13.5568 11.4412 13.5568 11.454 13.5691 11.4796C13.5691 11.4924 13.5691 11.5052 13.5814 11.518C13.5937 11.5563 13.6059 11.6075 13.6059 11.6459C13.6305 11.7227 13.6428 11.7867 13.6797 11.8507C13.692 11.8763 13.7043 11.9019 13.7166 11.9275C13.7289 11.9659 13.7535 11.9915 13.7658 12.0299C13.7781 12.0555 13.7904 12.0939 13.815 12.1195C13.8273 12.1451 13.8396 12.1707 13.8519 12.1835C13.8519 12.1963 13.8641 12.2091 13.8764 12.2091C13.8887 12.2347 13.901 12.2475 13.9133 12.2731C13.9379 12.2987 13.9502 12.3243 13.9748 12.3499C13.9871 12.3627 13.9994 12.3755 14.0117 12.3883C14.024 12.4011 14.0363 12.4139 14.0486 12.4395C14.0609 12.465 14.0855 12.4778 14.0978 12.5034L14.1223 12.529L14.1346 12.5162L14.1469 12.5034L14.1223 12.4778C13.7658 12.0939 13.5691 11.6075 13.5691 11.07C13.5691 9.96932 14.4297 9.06061 15.4994 9.06061C16.0035 9.06061 16.483 9.26539 16.8519 9.63655L16.8641 9.64935L16.8764 9.66215C17.233 10.0333 17.4297 10.5325 17.4297 11.07C17.4297 11.4412 17.3314 11.8123 17.1469 12.1195C17.1346 12.1451 17.11 12.1707 17.0978 12.1963C17.0855 12.2219 17.0609 12.2475 17.0486 12.2731C17.0363 12.2859 17.024 12.2987 17.024 12.3115C17.0117 12.3371 16.9871 12.3627 16.9748 12.3755C16.9625 12.3883 16.9625 12.3883 16.9502 12.4011V12.4139C16.9379 12.4267 16.9256 12.4395 16.9133 12.4523C16.901 12.465 16.8887 12.4778 16.8764 12.4906C16.8518 12.5162 16.8273 12.529 16.815 12.5546L16.5937 12.785C16.6797 12.721 16.7658 12.657 16.8396 12.5802L16.8519 12.5674L16.9625 12.4523L16.9748 12.4395C16.9748 12.4395 16.9748 12.4395 16.9871 12.4267C17.0486 12.3627 17.0978 12.2987 17.1469 12.2219C17.3805 11.8763 17.5035 11.4668 17.5035 11.0444C17.4666 10.5325 17.2699 10.0333 16.901 9.63655ZM12.7453 13.9753C12.8682 14.1033 12.9912 14.2185 13.1264 14.3209L12.7453 13.9241L12.733 13.9369L12.7207 13.9497L12.733 13.9625C12.733 13.9625 12.7453 13.9625 12.7453 13.9753Z" fill="white"/>
<path d="M12.6967 16.8292L12.6598 16.8676L12.6721 16.9188L12.709 16.8804C12.709 16.8548 12.6967 16.842 12.6967 16.8292ZM11.6762 15.0246C10.9631 14.2951 9.9918 13.8472 8.92213 13.8472C6.7582 13.8472 5 15.6774 5 17.9299C5 19.0434 5.43033 20.0545 6.13115 20.7968C6.14344 20.8096 6.15574 20.8224 6.15574 20.8224C6.73361 21.424 7.4959 21.8335 8.34426 21.9615C8.52869 21.9871 8.71311 21.9999 8.90984 21.9999C9.10656 21.9999 9.29098 21.9871 9.47541 21.9615H8.92213C7.86475 21.9615 6.89344 21.5135 6.19262 20.7968L6.16803 20.7712C5.47951 20.0417 5.04918 19.0434 5.04918 17.9299C5.04918 15.703 6.78279 13.8984 8.92213 13.8984C9.97951 13.8984 10.9508 14.3463 11.6516 15.063L11.6762 15.0886L11.7008 15.063C11.7008 15.0374 11.6885 15.0374 11.6762 15.0246Z" fill="white"/>
<path d="M10.3485 19.2613C10.3116 19.3125 10.2625 19.3509 10.2133 19.4021C9.86901 19.722 9.41409 19.9268 8.92229 19.9268C8.3936 19.9268 7.92639 19.7092 7.56983 19.3509L7.54524 19.3253C7.20098 18.9669 6.99196 18.4678 6.99196 17.9174C6.99196 16.8167 7.85262 15.908 8.92229 15.908C9.45098 15.908 9.91819 16.1256 10.2747 16.484L10.2993 16.5096L10.3239 16.484L10.2993 16.4584C9.94278 16.1 9.46327 15.8696 8.92229 15.8696C7.84032 15.8696 6.95508 16.7911 6.95508 17.9174C6.95508 18.4806 7.16409 18.9797 7.52065 19.3509L7.54524 19.3765C7.9018 19.7348 8.38131 19.9652 8.92229 19.9652C9.31573 19.9652 9.68459 19.8372 9.99196 19.6324C10.0903 19.5684 10.1887 19.4916 10.2747 19.4021L10.3362 19.3381C10.4223 19.2485 10.4961 19.1461 10.5575 19.0437L10.3485 19.2613Z" fill="white"/>
<path d="M16.9021 9.63655L16.8898 9.62375L16.8775 9.61095C16.5086 9.22699 16.0168 9.02222 15.5004 9.02222C14.4184 9.02222 13.5332 9.94372 13.5332 11.07C13.5332 11.1084 13.5332 11.1468 13.5332 11.1852C13.5332 11.2108 13.5332 11.2364 13.5455 11.2748C13.5455 11.2876 13.5455 11.3004 13.5455 11.3132C13.5455 11.3516 13.5578 11.39 13.5578 11.4284C13.5578 11.4412 13.5578 11.454 13.5701 11.4796C13.5701 11.4924 13.5701 11.5052 13.5824 11.518C13.5947 11.5563 13.607 11.6075 13.607 11.6459C13.6316 11.7227 13.6439 11.7867 13.6807 11.8507C13.693 11.8763 13.7053 11.9019 13.7176 11.9275C13.7299 11.9659 13.7545 11.9915 13.7668 12.0299C13.7791 12.0555 13.7914 12.0939 13.816 12.1195C13.8283 12.1451 13.8406 12.1707 13.8529 12.1835C13.8529 12.1963 13.8652 12.2091 13.8775 12.2091C13.8898 12.2347 13.9021 12.2475 13.9144 12.2731C13.9389 12.2987 13.9512 12.3243 13.9758 12.3499C13.9881 12.3627 14.0004 12.3755 14.0127 12.3883C14.025 12.4011 14.0373 12.4139 14.0496 12.4395C14.0619 12.465 14.0865 12.4778 14.0988 12.5034L14.1111 12.5162L14.1234 12.529C14.2094 12.6186 14.3078 12.6954 14.4062 12.7722C14.7258 13.0026 15.107 13.1178 15.5004 13.1178C15.8816 13.1178 16.2504 13.0026 16.5701 12.785C16.6562 12.721 16.7422 12.657 16.816 12.5802L16.8283 12.5674L16.9389 12.4523L16.9512 12.4395C16.9512 12.4395 16.9512 12.4395 16.9635 12.4267C17.025 12.3627 17.0742 12.2987 17.1234 12.2219C17.357 11.8763 17.4799 11.4668 17.4799 11.0444C17.4676 10.5325 17.2709 10.0333 16.9021 9.63655ZM17.0988 12.2091C17.0865 12.2347 17.0619 12.2603 17.0496 12.2859C17.0373 12.2987 17.025 12.3115 17.025 12.3243C17.0127 12.3499 16.9881 12.3755 16.9758 12.3883C16.9635 12.4011 16.9635 12.4011 16.9512 12.4139V12.4267C16.9389 12.4395 16.9266 12.4523 16.9143 12.465C16.9021 12.4778 16.8898 12.4906 16.8775 12.5034C16.8529 12.529 16.8283 12.5418 16.816 12.5674C16.4594 12.9002 16.0045 13.0794 15.525 13.0794C15.0209 13.0794 14.5414 12.8746 14.1725 12.5034L14.148 12.4778C13.7914 12.0939 13.5947 11.6075 13.5947 11.07C13.5947 9.96932 14.4553 9.06061 15.525 9.06061C16.0291 9.06061 16.5086 9.26539 16.8775 9.63655L16.8898 9.64935L16.9021 9.66215C17.2586 10.0333 17.4553 10.5325 17.4553 11.07C17.4553 11.4412 17.357 11.8123 17.1725 12.1195C17.1234 12.1579 17.1111 12.1835 17.0988 12.2091Z" fill="white"/>
<path d="M20.7866 19.4529C20.7005 19.3249 20.6021 19.2225 20.4792 19.1457C20.4669 19.1329 20.4546 19.1329 20.4423 19.1201L20.8357 19.5297C20.8234 19.5041 20.8112 19.4785 20.7866 19.4529ZM19.3849 20.8223L19.4956 20.9375C19.5079 20.9375 19.5202 20.9503 19.5325 20.9503C19.471 20.9119 19.4218 20.8735 19.3849 20.8223ZM19.1513 20.592C19.2251 20.6688 19.2989 20.7455 19.3726 20.8223L19.1513 20.592ZM19.0898 20.5152C19.0898 20.5152 19.0898 20.528 19.1021 20.528L19.1636 20.592C19.1267 20.5664 19.1144 20.5408 19.0898 20.5152Z" fill="white"/>
<path d="M23.9106 17.3799C23.9106 17.3671 23.8983 17.3415 23.8983 17.3287C23.6893 16.4328 22.9147 15.78 21.9926 15.78C21.5869 15.78 21.2057 15.908 20.8983 16.1256C20.6893 16.2792 20.5049 16.4584 20.3574 16.6887C20.1483 17.0215 20.0254 17.4055 20.0254 17.8278C20.0254 18.2502 20.1483 18.6469 20.3574 18.9669C20.3942 19.0309 20.4311 19.0821 20.4803 19.1333C20.5664 19.2485 20.677 19.3508 20.7877 19.4404C20.8246 19.466 20.8615 19.4916 20.886 19.5172C21.0705 19.6452 21.2795 19.7476 21.5008 19.8116C21.5131 19.8116 21.5377 19.8244 21.55 19.8244C21.6852 19.8628 21.8328 19.8756 21.9803 19.8756C23.0623 19.8756 23.9475 18.9541 23.9475 17.8278C23.9598 17.6742 23.9475 17.5334 23.9106 17.3799ZM21.9926 19.8372C21.8574 19.8372 21.7221 19.8244 21.5992 19.7988C21.5869 19.7988 21.5623 19.786 21.55 19.786C20.7016 19.5812 20.0623 18.7749 20.0623 17.8278C20.0623 16.7271 20.9229 15.8184 21.9926 15.8184C22.9024 15.8184 23.6647 16.484 23.8737 17.3671C23.8737 17.3799 23.886 17.3927 23.886 17.4183C23.9106 17.5462 23.9229 17.687 23.9229 17.8278C23.9229 18.9413 23.0623 19.8372 21.9926 19.8372Z" fill="white"/>
<path d="M15.5257 16.8169L15.5012 16.8553L15.4766 16.8169L15.5012 16.7913L15.5257 16.8169Z" fill="white"/>
<path d="M16.8907 15.3964L16.8783 15.4093L16.8535 15.3835L16.8659 15.3706L16.8907 15.3964Z" fill="white"/>
<path d="M17.1353 12.273L16.9386 12.465L16.8402 12.5802L16.8279 12.593L16.791 12.5546L16.9263 12.4266V12.4138L17.0984 12.2346L17.1353 12.273Z" fill="white"/>
<path d="M14.1473 15.3831L12.7088 16.8806L12.6719 16.919L10.3482 19.3379L10.2867 19.4019C10.2006 19.4915 10.1023 19.5683 10.0039 19.6323L10.2252 19.4019C10.2744 19.3635 10.3113 19.3123 10.3605 19.2611L10.5818 19.0307L12.6719 16.855L12.7088 16.8166L14.0982 15.3703L14.1228 15.3447L14.1473 15.3831Z" fill="white"/>
<path d="M14.5658 19.8504L12.5494 21.9494H12.5371L14.5658 19.8376V19.8504Z" fill="white"/>
<path d="M16.5087 17.8278L16.4719 17.8662L16.4473 17.8278L16.4719 17.8022L16.5087 17.8278Z" fill="white"/>
<path d="M19.4103 14.8074L19.3857 14.8458L19.1521 15.0762L18.8447 15.3962L17.8857 16.3945L17.8488 16.4329L17.8242 16.3945L17.8488 16.3689L19.1275 15.0506L19.3611 14.7946H19.3734L19.3857 14.769L19.4103 14.8074Z" fill="white"/>
<path d="M20.8984 16.1382L20.3574 16.7013C20.505 16.4709 20.6894 16.279 20.8984 16.1382Z" fill="white"/>
<path d="M23.0498 13.8857C23.0252 13.8857 23.0129 13.8857 22.9883 13.8857L23.0129 13.8601L23.0498 13.8857Z" fill="white"/>
<path d="M20.0867 21.3729L20.0621 21.3985C20.0498 21.3857 19.8408 21.2321 19.7793 21.1809L20.0375 21.3601L20.0498 21.3473C20.0621 21.3601 20.0744 21.3601 20.0867 21.3729Z" fill="white"/>
<path d="M21.5997 19.7984L21.5629 19.8368C21.5506 19.8368 21.526 19.824 21.5137 19.824L21.5506 19.7856C21.5629 19.7856 21.5751 19.7984 21.5997 19.7984Z" fill="white"/>
<path d="M23.9105 17.3796L23.8736 17.418C23.8736 17.4052 23.8613 17.3796 23.8613 17.3668L23.8982 17.3284C23.9105 17.354 23.9105 17.3668 23.9105 17.3796Z" fill="white"/>
<path d="M25.4476 15.7797L25.423 15.8053C25.4107 15.7925 25.4107 15.7797 25.3984 15.7669L25.4107 15.7542L25.4476 15.7797Z" fill="white"/>
<path d="M14.1482 12.5036L14.1359 12.5292L14.1113 12.4908L14.1236 12.478L14.1482 12.5036Z" fill="white"/>
<path d="M16.9027 9.63668L16.8781 9.66228L16.8658 9.64948L16.8535 9.63668L16.8781 9.61108L16.8904 9.62388C16.9027 9.63668 16.9027 9.63668 16.9027 9.63668Z" fill="white"/>
<path d="M6.20543 20.7844L6.18084 20.81C6.16855 20.7972 6.15625 20.7844 6.15625 20.7844L6.18084 20.7588L6.20543 20.7844Z" fill="white"/>
<path d="M7.58296 19.351L7.54607 19.3766L7.52148 19.351L7.54607 19.3254L7.58296 19.351Z" fill="white"/>
<path d="M11.7133 15.0505L11.6887 15.0761L10.3363 16.4839L10.3117 16.5095L10.2871 16.4839L10.3117 16.4583L11.6642 15.0505L11.6887 15.0249C11.6887 15.0377 11.701 15.0377 11.7133 15.0505Z" fill="white"/>
<path d="M12.7582 13.9627L12.7459 13.9755L12.709 13.9499L12.7213 13.9371L12.7336 13.9243L12.7582 13.9627Z" fill="white"/>
<path d="M25.4349 15.8054C25.4226 15.7926 25.4226 15.7798 25.4103 15.767C24.8939 14.8583 24.0455 14.1672 23.0496 13.8984C23.0373 13.8984 23.0127 13.8856 23.0005 13.8856C22.6931 13.8088 22.3734 13.7577 22.0291 13.7577C21.0086 13.7577 20.0742 14.1672 19.3734 14.8455L19.1521 15.0759L18.8447 15.3959L17.8734 16.407L17.8488 16.4326L17.8242 16.407L16.8775 15.4215L16.8652 15.4087L16.816 15.3575L16.8406 15.3319L17.6521 14.5L17.6767 14.4872L17.6521 14.4616C17.7136 14.4232 17.775 14.372 17.8365 14.3336L18.7218 13.2713L18.7586 13.2969C19.1521 12.657 19.3857 11.9018 19.3857 11.0955C19.3857 8.86857 17.6521 7.06396 15.5127 7.06396C13.3734 7.06396 11.6398 8.86857 11.6398 11.0955C11.6398 12.1706 12.0332 13.1689 12.7586 13.9368L13.1398 14.3336L14.1357 15.3703L14.1603 15.3959L12.7218 16.8933L12.6849 16.9317L10.3611 19.3507C10.3365 19.3763 10.3242 19.4018 10.2996 19.4146C10.2136 19.5042 10.1152 19.581 10.0168 19.645C9.70947 19.8626 9.34061 19.9778 8.94717 19.9778C8.40619 19.9778 7.92668 19.7602 7.57012 19.3891L7.54553 19.3635C7.20127 18.9923 6.97996 18.4931 6.97996 17.93C6.97996 16.8037 7.8652 15.8822 8.94717 15.8822C9.48815 15.8822 9.96766 16.0998 10.3242 16.471L11.6767 15.0631C10.9759 14.3464 10.0168 13.8984 8.94717 13.8984C6.80783 13.8984 5.07422 15.703 5.07422 17.93C5.07422 19.0307 5.50455 20.0418 6.19307 20.7713L6.21766 20.7969C6.91848 21.5136 7.8775 21.9616 8.94717 21.9616H9.51274C10.189 21.8592 10.816 21.5776 11.3447 21.1553L12.8324 19.6066L15.5005 16.8293L15.525 16.8037L15.5496 16.8293L16.4964 17.8148L16.5209 17.8404L16.4964 17.866L14.6275 19.8242L14.6029 19.8498L12.5742 21.9616H15.2791L15.9554 21.2577L15.98 21.2321L17.8488 19.2739L17.8734 19.2483L17.898 19.2739L18.8693 20.285L19.1152 20.5409C19.1152 20.5409 19.1152 20.5281 19.1029 20.5281C19.1275 20.5537 19.1521 20.5793 19.1767 20.6049L19.398 20.8353C19.4472 20.8737 19.4841 20.9249 19.5332 20.9633C19.5209 20.9633 19.5086 20.9505 19.4964 20.9505L19.7791 21.1809L20.0373 21.36L20.0496 21.3472C20.0619 21.36 20.0742 21.36 20.0865 21.3728C20.6644 21.7184 21.3283 21.9104 22.0291 21.9104C22.3611 21.9104 22.6808 21.872 23.0005 21.7824C23.0127 21.7824 23.0373 21.7696 23.0496 21.7696C24.7218 21.3088 25.9513 19.7218 25.9513 17.8276C25.9513 17.0981 25.7668 16.407 25.4349 15.8054ZM15.5005 13.1177C15.107 13.1177 14.7259 13.0025 14.4062 12.7722C14.3078 12.7082 14.2095 12.6186 14.1234 12.529L14.0988 12.5034C14.0742 12.4778 14.0619 12.465 14.0496 12.4394C14.0373 12.4266 14.025 12.4138 14.0127 12.3882C14.0005 12.3754 13.9882 12.3626 13.9759 12.3498C13.9513 12.3242 13.939 12.2986 13.9144 12.273C13.9021 12.2474 13.8898 12.2346 13.8775 12.209C13.8652 12.1962 13.8652 12.1834 13.8529 12.1834C13.8406 12.1578 13.8283 12.145 13.816 12.1194C13.8037 12.0938 13.7791 12.0682 13.7668 12.0298C13.7545 11.9914 13.73 11.9658 13.7177 11.9274C13.7054 11.9018 13.6931 11.8763 13.6808 11.8507C13.6562 11.7867 13.6316 11.7099 13.607 11.6459C13.5947 11.6075 13.5824 11.5563 13.5824 11.5179C13.5824 11.5051 13.5824 11.4923 13.5701 11.4795C13.5701 11.4667 13.5701 11.4539 13.5578 11.4283C13.5455 11.3899 13.5455 11.3515 13.5455 11.3131C13.5455 11.3003 13.5455 11.2875 13.5455 11.2747C13.5455 11.2491 13.5455 11.2235 13.5332 11.1851C13.5332 11.1467 13.5332 11.1083 13.5332 11.0699C13.5332 9.94366 14.4185 9.02216 15.5005 9.02216C16.0168 9.02216 16.5086 9.22693 16.8775 9.61089L16.8898 9.62369L16.9021 9.63649C17.2709 10.0204 17.4677 10.5324 17.4677 11.0699C17.4677 11.4923 17.3447 11.9018 17.1111 12.2474L17.1357 12.273L16.939 12.4778C16.9021 12.5162 16.8652 12.5546 16.8283 12.593L16.816 12.6058C16.7423 12.6826 16.6562 12.7466 16.5701 12.8106C16.2505 13.0025 15.8816 13.1177 15.5005 13.1177ZM21.9923 19.8882C21.8447 19.8882 21.6972 19.8754 21.5619 19.837C21.5496 19.837 21.525 19.8242 21.5127 19.8242C21.2914 19.7602 21.0824 19.6706 20.898 19.5298C20.8611 19.5042 20.8242 19.4786 20.7996 19.453C20.8119 19.4786 20.8365 19.5042 20.8488 19.5298L20.4554 19.1203C20.4677 19.1331 20.48 19.1331 20.4923 19.1459C20.4431 19.0947 20.4062 19.0307 20.3693 18.9795C20.1603 18.6467 20.0373 18.2628 20.0373 17.8404C20.0373 17.4181 20.1603 17.0213 20.3693 16.7013C20.5168 16.4838 20.689 16.2918 20.9103 16.1382C21.23 15.9206 21.5988 15.7926 22.0045 15.7926C22.9267 15.7926 23.7013 16.4582 23.9103 17.3413C23.9103 17.3541 23.9226 17.3797 23.9226 17.3925C23.9595 17.5332 23.9718 17.6868 23.9718 17.8404C23.9595 18.9667 23.0742 19.8882 21.9923 19.8882Z" fill="white"/>
<path d="M14.1469 15.3832L14.1223 15.4088L14.0977 15.3832L12.7206 13.9497C12.5977 13.8217 12.487 13.6938 12.3887 13.553L12.7452 13.9241L13.1264 14.3209L14.1223 15.3576L14.1469 15.3832Z" fill="white"/>
<path d="M16.5074 17.8279L16.4705 17.8663L16.4459 17.8279L15.4746 16.8169L15.4992 16.7913L15.5238 16.8169L16.4705 17.8024L16.5074 17.8279Z" fill="white"/>
<path d="M19.3854 20.8227C19.3116 20.7459 19.2378 20.6691 19.1641 20.5923L19.3854 20.8227Z" fill="white"/>
<path d="M17.8861 16.3944L17.8492 16.4328L17.8246 16.3944L16.8779 15.4089L16.8164 15.3449L16.841 15.3193H16.8533L16.9025 15.3705L17.8492 16.3688L17.8861 16.3944Z" fill="white"/>
<path d="M19.7793 21.1812L20.0375 21.3603L19.7793 21.1812Z" fill="white"/>
<path d="M20.7877 19.4535C20.8 19.4791 20.8246 19.5047 20.8369 19.5303L20.4435 19.1208C20.4558 19.1336 20.4681 19.1336 20.4804 19.1464C20.4312 19.0952 20.3943 19.0312 20.3574 18.98L20.8861 19.5303C20.8615 19.5047 20.8246 19.4791 20.7877 19.4535Z" fill="white"/>
<path d="M23.0743 21.8082C23.0621 21.8082 23.0375 21.821 23.0252 21.821L22.9883 21.7826C23.0006 21.7826 23.0252 21.7698 23.0375 21.7698L23.0743 21.8082Z" fill="white"/>
<path d="M14.4056 12.7853C14.3073 12.7213 14.2089 12.6317 14.1229 12.5421L14.0983 12.5165C14.0737 12.4909 14.0614 12.4781 14.0491 12.4525C14.0368 12.4397 14.0245 12.4269 14.0122 12.4013C13.9999 12.3886 13.9876 12.3758 13.9753 12.363C13.9507 12.3374 13.9384 12.3118 13.9138 12.2862C13.9015 12.2606 13.8892 12.2478 13.877 12.2222L14.1352 12.4909L14.1597 12.5165L14.4056 12.7853Z" fill="white"/>
<path d="M15.5116 16.8041L15.487 16.8297L12.8066 19.5942L15.4747 16.8169L15.4993 16.7913L15.5116 16.8041Z" fill="white"/>
<path d="M18.7817 13.297L18.4866 13.6426L18.3268 13.8346L18.0317 14.1802L17.8841 14.3593L16.9005 15.3704L16.8882 15.396L16.8759 15.4088L16.8145 15.3448L16.839 15.3192L17.6505 14.4873L17.6628 14.4617L17.8227 14.3081L18.7202 13.2458L18.7448 13.2714L18.7817 13.297Z" fill="white"/>
<path d="M17.6648 14.4614L17.6525 14.4742L16.8533 15.3189L16.8164 15.3445L16.841 15.3189L17.6525 14.487L17.6648 14.4614Z" fill="white"/>
</g>
</g>
<defs>
<clipPath id="clip0">
<rect width="1440" height="2568" fill="white" transform="translate(-278 -496)"/>
</clipPath>
<clipPath id="clip1">
<rect width="21" height="15" fill="white" transform="translate(5 7)"/>
</clipPath>
</defs>
</svg>
