<svg width="31" height="31" viewBox="0 0 31 31" fill="none" xmlns="http://www.w3.org/2000/svg">
<rect width="31" height="31" fill="#E5E5E5"/>
<g clip-path="url(#clip0)">
<rect width="1440" height="2771" transform="translate(-59 -491)" fill="white"/>
<rect x="-60" y="-21" width="720" height="74" fill="white"/>
<circle cx="15.5" cy="15.5" r="15.5" fill="#1831CC"/>
<g clip-path="url(#clip1)">
<path d="M11.3986 14.7673C11.3113 15.2546 11.315 15.7455 11.3986 16.2219V21.7819C11.3732 21.7673 11.3477 21.7492 11.3259 21.731C8.49905 19.8401 7.29119 16.2364 8.42629 13.011L11.4605 14.4728C11.435 14.571 11.4132 14.6692 11.3986 14.7673Z" fill="#FCFCFC"/>
<path d="M22.2585 18.7599C20.5849 22.2254 16.5757 23.8254 13.0249 22.5817C12.9994 22.5745 12.974 22.5636 12.9521 22.5563V18.7963C12.9776 18.8145 12.9994 18.8327 13.0249 18.8508C13.2286 19.0036 13.4506 19.1345 13.6871 19.2508C15.7571 20.2508 18.2529 19.3781 19.2534 17.309C19.7154 16.3563 19.7627 15.3163 19.4935 14.3708L22.495 12.8181C23.2117 14.6836 23.1935 16.8218 22.2585 18.7599Z" fill="#FCFCFC"/>
<path d="M17.3134 11.7456C17.8882 12.022 18.3575 12.422 18.7322 12.8874L21.7301 11.3347C21.0097 10.2547 20.0129 9.3456 18.7613 8.74196C15.2906 7.06924 11.1504 8.32014 9.14941 11.5092L12.1836 12.9747C13.3587 11.4329 15.4979 10.8729 17.3134 11.7456Z" fill="#FCFCFC"/>
<path d="M17.7535 16.585C18.3543 15.3406 17.8321 13.8451 16.5871 13.2446C15.3421 12.6441 13.8458 13.1661 13.245 14.4104C12.6443 15.6548 13.1665 17.1504 14.4115 17.7509C15.6564 18.3514 17.1527 17.8294 17.7535 16.585Z" fill="#FCFCFC"/>
<path d="M11.398 14.4727V21.7781C11.3725 21.7636 11.347 21.7454 11.3252 21.7272V14.4727H11.398Z" fill="#FCFCFC"/>
</g>
</g>
<defs>
<clipPath id="clip0">
<rect width="1440" height="2771" fill="white" transform="translate(-59 -491)"/>
</clipPath>
<clipPath id="clip1">
<rect width="15" height="15" fill="white" transform="translate(8 8)"/>
</clipPath>
</defs>
</svg>
