<svg width="50" height="47" viewBox="0 0 50 47" fill="none" xmlns="http://www.w3.org/2000/svg">
<rect width="50" height="47" fill="#E5E5E5"/>
<g clip-path="url(#clip0)">
<rect width="1440" height="2771" transform="translate(-160 -794)" fill="white"/>
<rect x="-160" y="-251" width="1440" height="1195" fill="#F6F8F9"/>
<rect x="-23.3779" y="-30.3779" width="353.349" height="194.093" rx="1.87791" fill="white" stroke="#EEEEEE" stroke-width="1.24419"/>
<rect x="0.883789" y="0.104736" width="48.5233" height="46.0134" rx="3.34643" fill="#F5D147"/>
<path d="M29.0685 19.9167C30.437 19.9167 31.5477 21.0274 31.5477 22.3959V27.0001H31.542V27.3542C31.542 27.636 31.4301 27.9063 31.2308 28.1056C31.0315 28.3048 30.7613 28.4167 30.4795 28.4167C30.1977 28.4167 29.9275 28.3048 29.7282 28.1056C29.5289 27.9063 29.417 27.636 29.417 27.3542V24.1667H29.4227V22.3959C29.4227 22.302 29.3853 22.2119 29.3189 22.1455C29.2525 22.0791 29.1624 22.0417 29.0685 22.0417H21.274C21.1801 22.0417 21.09 22.0791 21.0236 22.1455C20.9571 22.2119 20.9198 22.302 20.9198 22.3959V27.0001H20.917V27.3542C20.917 27.636 20.8051 27.9063 20.6058 28.1056C20.4065 28.3048 20.1363 28.4167 19.8545 28.4167C19.5727 28.4167 19.3024 28.3048 19.1032 28.1056C18.9039 27.9063 18.792 27.636 18.792 27.3542V24.1667H18.7948V22.3959C18.7948 21.0274 19.9041 19.9167 21.274 19.9167H29.0685Z" fill="white"/>
<path d="M37.2087 22.3959V27.3542C37.2087 27.636 37.3206 27.9063 37.5199 28.1056C37.7191 28.3048 37.9894 28.4167 38.2712 28.4167C38.553 28.4167 38.8232 28.3048 39.0225 28.1056C39.2217 27.9063 39.3337 27.636 39.3337 27.3542V22.3959C39.3337 21.7384 39.0725 21.1078 38.6075 20.6429C38.1426 20.1779 37.512 19.9167 36.8545 19.9167H32.0732C32.5592 20.5047 32.8765 21.2371 32.9487 22.0417H36.8545C36.9484 22.0417 37.0385 22.0791 37.1049 22.1455C37.1713 22.2119 37.2087 22.302 37.2087 22.3959Z" fill="white"/>
<path d="M11 27.3542C11 27.636 11.1119 27.9063 11.3112 28.1056C11.5105 28.3048 11.7807 28.4167 12.0625 28.4167C12.3443 28.4167 12.6145 28.3048 12.8138 28.1056C13.0131 27.9063 13.125 27.636 13.125 27.3542V22.3959C13.125 22.302 13.1623 22.2119 13.2287 22.1455C13.2952 22.0791 13.3852 22.0417 13.4792 22.0417H17.3934C17.4639 21.2612 17.7691 20.5204 18.2689 19.9167H13.4792C12.8217 19.9167 12.1911 20.1779 11.7261 20.6429C11.2612 21.1078 11 21.7384 11 22.3959V27.3542Z" fill="white"/>
<path d="M25.167 10C26.2942 10 27.3752 10.4478 28.1722 11.2448C28.9692 12.0418 29.417 13.1228 29.417 14.25C29.417 15.3772 28.9692 16.4582 28.1722 17.2552C27.3752 18.0522 26.2942 18.5 25.167 18.5C24.0398 18.5 22.9588 18.0522 22.1618 17.2552C21.3648 16.4582 20.917 15.3772 20.917 14.25C20.917 13.1228 21.3648 12.0418 22.1618 11.2448C22.9588 10.4478 24.0398 10 25.167 10ZM25.167 12.125C24.6034 12.125 24.0629 12.3489 23.6644 12.7474C23.2659 13.1459 23.042 13.6864 23.042 14.25C23.042 14.8136 23.2659 15.3541 23.6644 15.7526C24.0629 16.1511 24.6034 16.375 25.167 16.375C25.7306 16.375 26.2711 16.1511 26.6696 15.7526C27.0681 15.3541 27.292 14.8136 27.292 14.25C27.292 13.6864 27.0681 13.1459 26.6696 12.7474C26.2711 12.3489 25.7306 12.125 25.167 12.125Z" fill="white"/>
<path d="M34.3747 11.4167C35.314 11.4167 36.2148 11.7899 36.879 12.4541C37.5432 13.1183 37.9163 14.0191 37.9163 14.9584C37.9163 15.8977 37.5432 16.7986 36.879 17.4628C36.2148 18.1269 35.314 18.5001 34.3747 18.5001C33.4354 18.5001 32.5345 18.1269 31.8703 17.4628C31.2061 16.7986 30.833 15.8977 30.833 14.9584C30.833 14.0191 31.2061 13.1183 31.8703 12.4541C32.5345 11.7899 33.4354 11.4167 34.3747 11.4167ZM34.3747 13.5417C33.999 13.5417 33.6386 13.691 33.3729 13.9567C33.1073 14.2224 32.958 14.5827 32.958 14.9584C32.958 15.3341 33.1073 15.6945 33.3729 15.9601C33.6386 16.2258 33.999 16.3751 34.3747 16.3751C34.7504 16.3751 35.1107 16.2258 35.3764 15.9601C35.6421 15.6945 35.7913 15.3341 35.7913 14.9584C35.7913 14.5827 35.6421 14.2224 35.3764 13.9567C35.1107 13.691 34.7504 13.5417 34.3747 13.5417Z" fill="white"/>
<path d="M15.9587 11.4167C16.898 11.4167 17.7988 11.7899 18.463 12.4541C19.1272 13.1183 19.5003 14.0191 19.5003 14.9584C19.5003 15.8977 19.1272 16.7986 18.463 17.4628C17.7988 18.1269 16.898 18.5001 15.9587 18.5001C15.0194 18.5001 14.1185 18.1269 13.4543 17.4628C12.7901 16.7986 12.417 15.8977 12.417 14.9584C12.417 14.0191 12.7901 13.1183 13.4543 12.4541C14.1185 11.7899 15.0194 11.4167 15.9587 11.4167ZM15.9587 13.5417C15.5829 13.5417 15.2226 13.691 14.9569 13.9567C14.6912 14.2224 14.542 14.5827 14.542 14.9584C14.542 15.3341 14.6912 15.6945 14.9569 15.9601C15.2226 16.2258 15.5829 16.3751 15.9587 16.3751C16.3344 16.3751 16.6947 16.2258 16.9604 15.9601C17.2261 15.6945 17.3753 15.3341 17.3753 14.9584C17.3753 14.5827 17.2261 14.2224 16.9604 13.9567C16.6947 13.691 16.3344 13.5417 15.9587 13.5417Z" fill="white"/>
<path d="M12.0625 29.8333C11.7807 29.8333 11.5105 29.9452 11.3112 30.1445C11.1119 30.3437 11 30.614 11 30.8958V31.6041C11 33.013 11.5597 34.3643 12.556 35.3606C13.5523 36.3569 14.9035 36.9166 16.3125 36.9166H34.0208C35.4298 36.9166 36.7811 36.3569 37.7773 35.3606C38.7736 34.3643 39.3333 33.013 39.3333 31.6041V30.8958C39.3333 30.614 39.2214 30.3437 39.0221 30.1445C38.8229 29.9452 38.5526 29.8333 38.2708 29.8333H12.0625ZM16.3125 34.7916C15.5285 34.7916 14.7719 34.5026 14.1876 33.9799C13.6032 33.4572 13.2319 32.7374 13.1448 31.9583H37.1885C37.1014 32.7374 36.7302 33.4572 36.1458 33.9799C35.5614 34.5026 34.8049 34.7916 34.0208 34.7916H16.3125Z" fill="white"/>
</g>
<defs>
<clipPath id="clip0">
<rect width="1440" height="2771" fill="white" transform="translate(-160 -794)"/>
</clipPath>
</defs>
</svg>
