<svg width="50" height="47" viewBox="0 0 50 47" fill="none" xmlns="http://www.w3.org/2000/svg">
<rect width="50" height="47" fill="#E5E5E5"/>
<g clip-path="url(#clip0)">
<rect width="1440" height="2771" transform="translate(-533 -1025)" fill="white"/>
<rect x="-533" y="-482" width="1440" height="1195" fill="#F6F8F9"/>
<rect x="-23.3779" y="-29.9594" width="353.349" height="194.093" rx="1.87791" fill="white" stroke="#EEEEEE" stroke-width="1.24419"/>
<rect x="0.883789" y="0.523193" width="48.5233" height="46.0134" rx="3.34643" fill="#A389DC"/>
<path fill-rule="evenodd" clip-rule="evenodd" d="M23.818 21.4546V26.3828C23.0291 26.6616 22.3642 27.2103 21.9408 27.9319C21.5174 28.6535 21.3627 29.5016 21.5042 30.3262C21.6456 31.1509 22.074 31.899 22.7137 32.4383C23.3534 32.9776 24.1631 33.2733 24.9998 33.2733C25.8364 33.2733 26.6462 32.9776 27.2858 32.4383C27.9255 31.899 28.3539 31.1509 28.4954 30.3262C28.6368 29.5016 28.4821 28.6535 28.0587 27.9319C27.6353 27.2103 26.9704 26.6616 26.1816 26.3828V21.4546H23.818ZM23.818 29.7273C23.818 29.4139 23.9425 29.1133 24.1641 28.8916C24.3857 28.67 24.6863 28.5455 24.9998 28.5455C25.3132 28.5455 25.6138 28.67 25.8354 28.8916C26.0571 29.1133 26.1816 29.4139 26.1816 29.7273C26.1816 30.0408 26.0571 30.3414 25.8354 30.563C25.6138 30.7846 25.3132 30.9091 24.9998 30.9091C24.6863 30.9091 24.3857 30.7846 24.1641 30.563C23.9425 30.3414 23.818 30.0408 23.818 29.7273Z" fill="white"/>
<path d="M25.0003 16.7273C27.1943 16.7273 29.2985 17.5989 30.85 19.1503C32.4014 20.7018 33.273 22.806 33.273 25V26.1818H30.9094V25C30.9094 23.4328 30.2868 21.9298 29.1786 20.8217C28.0705 19.7135 26.5675 19.0909 25.0003 19.0909C23.4331 19.0909 21.9301 19.7135 20.8219 20.8217C19.7137 21.9298 19.0912 23.4328 19.0912 25V26.1818H16.7275V25C16.7275 22.806 17.5991 20.7018 19.1506 19.1503C20.702 17.5989 22.8062 16.7273 25.0003 16.7273Z" fill="white"/>
<path fill-rule="evenodd" clip-rule="evenodd" d="M25 38C32.1795 38 38 32.1795 38 25C38 17.8205 32.1795 12 25 12C17.8205 12 12 17.8205 12 25C12 32.1795 17.8205 38 25 38ZM25 35.6364C26.3968 35.6364 27.7799 35.3612 29.0704 34.8267C30.3608 34.2922 31.5334 33.5087 32.521 32.521C33.5087 31.5334 34.2922 30.3608 34.8267 29.0704C35.3612 27.7799 35.6364 26.3968 35.6364 25C35.6364 23.6032 35.3612 22.2201 34.8267 20.9296C34.2922 19.6392 33.5087 18.4666 32.521 17.479C31.5334 16.4913 30.3608 15.7078 29.0704 15.1733C27.7799 14.6388 26.3968 14.3636 25 14.3636C22.1791 14.3636 19.4737 15.4842 17.479 17.479C15.4843 19.4737 14.3636 22.1791 14.3636 25C14.3636 27.8209 15.4843 30.5263 17.479 32.521C19.4737 34.5157 22.1791 35.6364 25 35.6364Z" fill="white"/>
</g>
<defs>
<clipPath id="clip0">
<rect width="1440" height="2771" fill="white" transform="translate(-533 -1025)"/>
</clipPath>
</defs>
</svg>
