<svg width="199" height="37" viewBox="0 0 199 37" fill="none" xmlns="http://www.w3.org/2000/svg">
<path d="M23.1325 11.345C24.2576 11.345 25.2045 11.6291 25.9731 12.1972C26.7529 12.7653 27.2431 13.534 27.4436 14.5031L25.6556 14.8707C25.5554 14.2803 25.2713 13.8069 24.8034 13.4504C24.3356 13.0828 23.7674 12.899 23.0991 12.899C22.4418 12.899 21.9127 13.0605 21.5116 13.3836C21.1106 13.6955 20.9101 14.1021 20.9101 14.6034C20.9101 14.9933 21.0215 15.2996 21.2443 15.5224C21.4782 15.7452 21.8403 15.9067 22.3304 16.007L24.7533 16.525C26.6694 16.9483 27.6274 17.9676 27.6274 19.5829C27.6274 20.63 27.2319 21.4655 26.441 22.0893C25.6612 22.702 24.6252 23.0083 23.333 23.0083C22.0965 23.0083 21.0493 22.7187 20.1916 22.1394C19.3338 21.549 18.8381 20.7303 18.7044 19.6831L20.6093 19.2821C20.743 19.9839 21.066 20.5186 21.5785 20.8862C22.0909 21.2427 22.7314 21.4209 23.5001 21.4209C24.2353 21.4209 24.809 21.265 25.2212 20.9531C25.6445 20.63 25.8562 20.2067 25.8562 19.6831C25.8562 19.2598 25.7336 18.9368 25.4885 18.714C25.2546 18.4912 24.8536 18.3185 24.2854 18.196L21.8458 17.6947C19.9632 17.2602 19.0219 16.2465 19.0219 14.6535C19.0219 13.6621 19.3951 12.8656 20.1414 12.264C20.8989 11.6513 21.896 11.345 23.1325 11.345ZM37.5327 18.4466V19.0482H30.8154C30.8934 19.7945 31.1719 20.3905 31.6509 20.8361C32.1299 21.2817 32.6869 21.5045 33.3219 21.5045C34.4692 21.5045 35.2825 21.0255 35.7615 20.0674L37.3155 20.4016C36.9813 21.2594 36.4633 21.9111 35.7615 22.3567C35.0708 22.7911 34.2576 23.0083 33.3219 23.0083C32.1633 23.0083 31.1663 22.6017 30.3308 21.7885C29.5065 20.9753 29.0943 19.9282 29.0943 18.6471C29.0943 17.3549 29.5065 16.3022 30.3308 15.489C31.1663 14.6647 32.1856 14.2525 33.3887 14.2525C34.5138 14.2525 35.4718 14.6479 36.2628 15.4389C37.0648 16.2187 37.4881 17.2212 37.5327 18.4466ZM33.3887 15.7898C32.8094 15.7898 32.2747 15.968 31.7846 16.3245C31.2944 16.681 30.9881 17.1767 30.8655 17.8116H35.7448C35.6111 17.1544 35.3326 16.6531 34.9093 16.3078C34.486 15.9624 33.9791 15.7898 33.3887 15.7898ZM43.1162 21.4042C44.3527 21.4042 45.1659 20.825 45.5558 19.6664L47.1599 20.0842C46.9371 20.9642 46.447 21.6716 45.6895 22.2063C44.9431 22.741 44.0854 23.0083 43.1162 23.0083C41.902 23.0083 40.866 22.6017 40.0082 21.7885C39.1616 20.9642 38.7383 19.9115 38.7383 18.6304C38.7383 17.3605 39.1616 16.3133 40.0082 15.489C40.866 14.6647 41.902 14.2525 43.1162 14.2525C44.0631 14.2525 44.9097 14.5198 45.6561 15.0545C46.4024 15.5781 46.9037 16.2799 47.1599 17.16L45.489 17.6445C45.333 17.0541 45.0434 16.6085 44.6201 16.3078C44.1968 16.007 43.6955 15.8566 43.1162 15.8566C42.3476 15.8566 41.707 16.1184 41.1946 16.642C40.6933 17.1544 40.4427 17.8172 40.4427 18.6304C40.4427 19.4659 40.6933 20.1399 41.1946 20.6523C41.6959 21.1536 42.3364 21.4042 43.1162 21.4042ZM56.8206 14.4864V22.7744H55.0828V21.7551C54.381 22.5906 53.4286 23.0083 52.2255 23.0083C51.2229 23.0083 50.4152 22.6853 49.8026 22.0392C49.201 21.3819 48.9002 20.5297 48.9002 19.4826V14.4864H50.638V19.1317C50.638 19.8112 50.8163 20.3627 51.1727 20.786C51.5404 21.1981 52.0249 21.4042 52.6265 21.4042C53.3951 21.4042 53.9967 21.1424 54.4311 20.6189C54.8656 20.0953 55.0828 19.3267 55.0828 18.3129V14.4864H56.8206ZM64.3586 14.3862C64.6037 14.3862 64.7987 14.4084 64.9435 14.453L64.8265 16.124C64.7374 16.1128 64.5759 16.1073 64.3419 16.1073C63.3171 16.1073 62.5373 16.4414 62.0026 17.1098C61.4679 17.7671 61.2005 18.6805 61.2005 19.8502V22.7744H59.4627V14.4864H61.2005V16.2576C61.958 15.01 63.0107 14.3862 64.3586 14.3862ZM74.0525 18.4466V19.0482H67.3352C67.4132 19.7945 67.6917 20.3905 68.1707 20.8361C68.6497 21.2817 69.2067 21.5045 69.8416 21.5045C70.989 21.5045 71.8022 21.0255 72.2812 20.0674L73.8352 20.4016C73.5011 21.2594 72.9831 21.9111 72.2812 22.3567C71.5906 22.7911 70.7774 23.0083 69.8416 23.0083C68.6831 23.0083 67.6861 22.6017 66.8506 21.7885C66.0263 20.9753 65.6141 19.9282 65.6141 18.6471C65.6141 17.3549 66.0263 16.3022 66.8506 15.489C67.6861 14.6647 68.7054 14.2525 69.9085 14.2525C71.0336 14.2525 71.9916 14.6479 72.7825 15.4389C73.5846 16.2187 74.0079 17.2212 74.0525 18.4466ZM69.9085 15.7898C69.3292 15.7898 68.7945 15.968 68.3043 16.3245C67.8142 16.681 67.5078 17.1767 67.3853 17.8116H72.2645C72.1309 17.1544 71.8524 16.6531 71.4291 16.3078C71.0057 15.9624 70.4989 15.7898 69.9085 15.7898ZM84.1309 10.7434V22.7744H82.3764V21.8387C81.5966 22.6185 80.594 23.0083 79.3686 23.0083C78.2546 23.0083 77.2911 22.5962 76.4779 21.7718C75.6646 20.9475 75.258 19.9003 75.258 18.6304C75.258 17.3605 75.6646 16.3133 76.4779 15.489C77.2911 14.6647 78.2546 14.2525 79.3686 14.2525C80.6051 14.2525 81.6077 14.6479 82.3764 15.4389V10.7434H84.1309ZM79.6527 21.4711C80.3768 21.4711 81.0117 21.2093 81.5576 20.6857C82.1034 20.1621 82.3764 19.477 82.3764 18.6304C82.3764 17.7949 82.1034 17.1154 81.5576 16.5918C81.0117 16.0571 80.3768 15.7898 79.6527 15.7898C78.884 15.7898 78.2435 16.0516 77.7311 16.5751C77.2186 17.0987 76.9624 17.7838 76.9624 18.6304C76.9624 19.4882 77.2186 20.1788 77.7311 20.7024C78.2435 21.2148 78.884 21.4711 79.6527 21.4711ZM95.6205 14.2525C96.7345 14.2525 97.6981 14.6647 98.5113 15.489C99.3245 16.3133 99.7311 17.3605 99.7311 18.6304C99.7311 19.9115 99.3245 20.9642 98.5113 21.7885C97.7092 22.6017 96.7456 23.0083 95.6205 23.0083C94.3728 23.0083 93.3702 22.6129 92.6127 21.822V22.7744H90.8749V10.7434H92.6127V15.4389C93.3702 14.6479 94.3728 14.2525 95.6205 14.2525ZM95.3364 21.4711C96.1162 21.4711 96.7623 21.2148 97.2747 20.7024C97.7872 20.1788 98.0434 19.4882 98.0434 18.6304C98.0434 17.7727 97.7872 17.0876 97.2747 16.5751C96.7623 16.0516 96.1162 15.7898 95.3364 15.7898C94.6123 15.7898 93.9774 16.0571 93.4315 16.5918C92.8857 17.1154 92.6127 17.7949 92.6127 18.6304C92.6127 19.4659 92.8857 20.151 93.4315 20.6857C93.9774 21.2093 94.6123 21.4711 95.3364 21.4711ZM109.437 14.4697L104.475 25.6151H102.536L103.89 22.5739L100.314 14.4697H102.252L104.842 20.4518L107.499 14.4697H109.437Z" fill="#2B2B2B"/>
<path d="M0 16.33C0 15.6969 0.251497 15.0897 0.699164 14.642C1.14683 14.1944 1.754 13.9429 2.3871 13.9429H10.7419C11.375 13.9429 11.9822 14.1944 12.4299 14.642C12.8775 15.0897 13.129 15.6969 13.129 16.33V22.2977C13.129 22.9308 12.8775 23.538 12.4299 23.9856C11.9822 24.4333 11.375 24.6848 10.7419 24.6848H2.3871C1.754 24.6848 1.14683 24.4333 0.699164 23.9856C0.251497 23.538 0 22.9308 0 22.2977V16.33Z" fill="#2A2A2A"/>
<path fill-rule="evenodd" clip-rule="evenodd" d="M2.38672 10.362C2.38672 9.25407 2.82684 8.19153 3.61026 7.40811C4.39367 6.62469 5.45622 6.18457 6.56414 6.18457C7.67206 6.18457 8.7346 6.62469 9.51802 7.40811C10.3014 8.19153 10.7416 9.25407 10.7416 10.362V13.9426H9.54801V10.362C9.54801 9.57062 9.23364 8.81166 8.67405 8.25207C8.11447 7.69249 7.35551 7.37812 6.56414 7.37812C5.77277 7.37812 5.01381 7.69249 4.45422 8.25207C3.89464 8.81166 3.58027 9.57062 3.58027 10.362V13.9426H2.38672V10.362Z" fill="#2A2A2A"/>
<mask id="mask0" mask-type="alpha" maskUnits="userSpaceOnUse" x="110" y="0" width="89" height="37">
<rect x="110.104" width="88.3226" height="37"/>
</mask>
<g mask="url(#mask0)">
<rect x="113.686" y="-5.96777" width="99.0645" height="42.9677" fill="#2A2A2A"/>
</g>
</svg>
